<?xml version="1.0" encoding="utf-8"?>
<svg xmlns="http://www.w3.org/2000/svg" viewBox="195.827 200.245 49.569 20.804" width="49.569px" height="20.804px"><path d="M 195.827 217.073 L 195.827 213.993 L 204.983 200.889 L 209.547 200.889 L 209.547 213.657 L 212.011 213.657 L 212.011 217.073 L 209.547 217.073 L 209.547 221.049 L 205.627 221.049 L 205.627 217.073 Z M 205.879 205.089 L 200.139 213.657 L 205.879 213.657 Z M 212.897 210.577 Q 212.897 205.733 214.647 202.989 Q 216.397 200.245 220.457 200.245 Q 224.517 200.245 226.267 202.989 Q 228.017 205.733 228.017 210.577 Q 228.017 215.449 226.267 218.221 Q 224.517 220.993 220.457 220.993 Q 216.397 220.993 214.647 218.221 Q 212.897 215.449 212.897 210.577 Z M 224.153 210.577 Q 224.153 208.505 223.887 207.091 Q 223.621 205.677 222.823 204.781 Q 222.025 203.885 220.457 203.885 Q 218.889 203.885 218.091 204.781 Q 217.293 205.677 217.027 207.091 Q 216.761 208.505 216.761 210.577 Q 216.761 212.705 217.013 214.147 Q 217.265 215.589 218.077 216.471 Q 218.889 217.353 220.457 217.353 Q 222.025 217.353 222.837 216.471 Q 223.649 215.589 223.901 214.147 Q 224.153 212.705 224.153 210.577 Z M 229.212 217.073 L 229.212 213.993 L 238.368 200.889 L 242.932 200.889 L 242.932 213.657 L 245.396 213.657 L 245.396 217.073 L 242.932 217.073 L 242.932 221.049 L 239.012 221.049 L 239.012 217.073 Z M 239.264 205.089 L 233.524 213.657 L 239.264 213.657 Z" style="fill: #101010; text-wrap-mode: nowrap;" id="object-0"/></svg>