<?xml version="1.0" encoding="utf-8"?>
<svg xmlns="http://www.w3.org/2000/svg" viewBox="128.009 -64.155 140.11 27.104" width="140.11px" height="27.104px"><path d="M 132.797 -64.155 L 132.797 -52.395 C 132.797 -51.219 133.086 -50.313 133.665 -49.679 C 134.244 -49.044 135.093 -48.727 136.213 -48.727 C 137.333 -48.727 138.192 -49.044 138.789 -49.679 C 139.386 -50.313 139.685 -51.219 139.685 -52.395 L 139.685 -64.155 L 144.473 -64.155 L 144.473 -52.423 C 144.473 -50.668 144.1 -49.184 143.353 -47.971 C 142.606 -46.757 141.603 -45.843 140.343 -45.227 C 139.083 -44.611 137.678 -44.303 136.129 -44.303 C 134.58 -44.303 133.194 -44.606 131.971 -45.213 C 130.748 -45.819 129.782 -46.734 129.073 -47.957 C 128.364 -49.179 128.009 -50.668 128.009 -52.423 L 128.009 -64.155 L 132.797 -64.155 Z M 152.615 -57.911 C 153.082 -58.639 153.726 -59.227 154.547 -59.675 C 155.368 -60.123 156.33 -60.347 157.431 -60.347 C 158.719 -60.347 159.886 -60.02 160.931 -59.367 C 161.976 -58.713 162.802 -57.78 163.409 -56.567 C 164.016 -55.353 164.319 -53.944 164.319 -52.339 C 164.319 -50.733 164.016 -49.319 163.409 -48.097 C 162.802 -46.874 161.976 -45.931 160.931 -45.269 C 159.886 -44.606 158.719 -44.275 157.431 -44.275 C 156.348 -44.275 155.392 -44.499 154.561 -44.947 C 153.73 -45.395 153.082 -45.973 152.615 -46.683 L 152.615 -37.051 L 147.827 -37.051 L 147.827 -60.123 L 152.615 -60.123 L 152.615 -57.911 Z M 159.447 -52.339 C 159.447 -53.533 159.116 -54.471 158.453 -55.153 C 157.79 -55.834 156.974 -56.175 156.003 -56.175 C 155.051 -56.175 154.244 -55.829 153.581 -55.139 C 152.918 -54.448 152.587 -53.505 152.587 -52.311 C 152.587 -51.116 152.918 -50.173 153.581 -49.483 C 154.244 -48.792 155.051 -48.447 156.003 -48.447 C 156.955 -48.447 157.767 -48.797 158.439 -49.497 C 159.111 -50.197 159.447 -51.144 159.447 -52.339 Z M 171.623 -64.155 L 171.623 -44.499 L 166.835 -44.499 L 166.835 -64.155 L 171.623 -64.155 Z M 184.611 -60.291 C 186.44 -60.291 187.901 -59.698 188.993 -58.513 C 190.085 -57.327 190.631 -55.699 190.631 -53.627 L 190.631 -44.499 L 185.871 -44.499 L 185.871 -52.983 C 185.871 -54.028 185.6 -54.84 185.059 -55.419 C 184.518 -55.997 183.79 -56.287 182.875 -56.287 C 181.96 -56.287 181.232 -55.997 180.691 -55.419 C 180.15 -54.84 179.879 -54.028 179.879 -52.983 L 179.879 -44.499 L 175.091 -44.499 L 175.091 -60.123 L 179.879 -60.123 L 179.879 -58.051 C 180.364 -58.741 181.018 -59.287 181.839 -59.689 C 182.66 -60.09 183.584 -60.291 184.611 -60.291 Z M 208.102 -64.155 L 208.102 -60.319 L 202.894 -60.319 L 202.894 -44.499 L 198.106 -44.499 L 198.106 -60.319 L 192.898 -60.319 L 192.898 -64.155 L 208.102 -64.155 Z M 217.618 -44.275 C 216.087 -44.275 214.711 -44.601 213.488 -45.255 C 212.265 -45.908 211.304 -46.841 210.604 -48.055 C 209.904 -49.268 209.554 -50.687 209.554 -52.311 C 209.554 -53.916 209.909 -55.33 210.618 -56.553 C 211.327 -57.775 212.298 -58.713 213.53 -59.367 C 214.762 -60.02 216.143 -60.347 217.674 -60.347 C 219.205 -60.347 220.586 -60.02 221.818 -59.367 C 223.05 -58.713 224.021 -57.775 224.73 -56.553 C 225.439 -55.33 225.794 -53.916 225.794 -52.311 C 225.794 -50.705 225.435 -49.291 224.716 -48.069 C 223.997 -46.846 223.017 -45.908 221.776 -45.255 C 220.535 -44.601 219.149 -44.275 217.618 -44.275 Z M 217.618 -48.419 C 218.533 -48.419 219.312 -48.755 219.956 -49.427 C 220.6 -50.099 220.922 -51.06 220.922 -52.311 C 220.922 -53.561 220.609 -54.523 219.984 -55.195 C 219.359 -55.867 218.589 -56.203 217.674 -56.203 C 216.741 -56.203 215.966 -55.871 215.35 -55.209 C 214.734 -54.546 214.426 -53.58 214.426 -52.311 C 214.426 -51.06 214.729 -50.099 215.336 -49.427 C 215.943 -48.755 216.703 -48.419 217.618 -48.419 Z M 250.764 -60.123 L 246.536 -44.499 L 241.244 -44.499 L 238.78 -54.635 L 236.232 -44.499 L 230.968 -44.499 L 226.712 -60.123 L 231.5 -60.123 L 233.712 -48.951 L 236.344 -60.123 L 241.412 -60.123 L 244.072 -49.007 L 246.256 -60.123 L 250.764 -60.123 Z M 262.099 -60.291 C 263.928 -60.291 265.389 -59.698 266.481 -58.513 C 267.573 -57.327 268.119 -55.699 268.119 -53.627 L 268.119 -44.499 L 263.359 -44.499 L 263.359 -52.983 C 263.359 -54.028 263.088 -54.84 262.547 -55.419 C 262.006 -55.997 261.278 -56.287 260.363 -56.287 C 259.448 -56.287 258.72 -55.997 258.179 -55.419 C 257.638 -54.84 257.367 -54.028 257.367 -52.983 L 257.367 -44.499 L 252.579 -44.499 L 252.579 -60.123 L 257.367 -60.123 L 257.367 -58.051 C 257.852 -58.741 258.506 -59.287 259.327 -59.689 C 260.148 -60.09 261.072 -60.291 262.099 -60.291 Z" style="fill: rgb(255, 255, 255); text-wrap-mode: nowrap;" id="object-0"/></svg>