<svg viewBox="0 0 147.16 135.4"
  xmlns="http://www.w3.org/2000/svg">
  <g id="layer1" transform="translate(-8.6796441,-2.9647665)">
    <path style="fill:#ebebeb" d="m 28.168994,138.13447 -1.80962,-0.23502 -2.02684,-0.67659 -2.02685,-0.67658 -1.70122,-0.93066 -1.70122,-0.93066 -1.47378,-1.1355 -1.47378,-1.13551 -1.2503,-1.33864 -1.2503,-1.33864 -1.19728,-1.8508 -1.19728,-1.85081 -0.79145,-1.97655 -0.7914498,-1.97655 -0.39899,-1.89674 -0.39899,-1.89673 0.002,-2.95926 0.002,-2.95927 0.5276,-2.20077 0.5276,-2.20078 0.8816798,-1.90026 0.88168,-1.90027 6.56036,-11.377076 6.56037,-11.37709 4.56301,-7.9375 4.56302,-7.9375 4.02957,-7.01145 4.02957,-7.01146 13.64797,-23.89747 13.64796,-23.8974755 0.73106,-0.378046 0.73106,-0.378046 h 1.09183 1.09182 l 0.7734,0.773397 0.7734,0.773398 v 0.657456 0.657456 l -3.13818,12.2613335 -3.13817,12.261327 -2.9854,11.64167 -2.9854,11.64167 -0.11042,0.52916 -0.11042,0.52917 4.64844,2.3151 4.64844,2.31511 h 11.113665 11.11366 l 4.29637,-2.14617 4.296371,-2.14616 0.30614,-0.24708 0.30614,-0.24708 -5.282041,-20.95623 -5.28204,-20.956236 -0.91108,-3.2398545 -0.91108,-3.239853 v -0.815395 -0.815394 l 0.7734,-0.773398 0.77339,-0.773397 h 1.19068 1.19068 l 0.78685,0.662088 0.78684,0.662087 2.90822,5.0926 2.908231,5.0925995 1.91715,3.307292 1.91716,3.307291 14.62117,25.53229 14.62117,25.53229 7.06855,12.30312 7.06855,12.30313 2.07705,3.578996 2.07705,3.579 0.93783,2.02981 0.93783,2.02981 0.55439,2.32869 0.55438,2.32869 -0.1257,3.57187 -0.1257,3.57188 -0.43925,1.5875 -0.43926,1.5875 -1.29305,2.64583 -1.29306,2.64583 -1.47942,1.78275 -1.47943,1.78275 -1.75327,1.44618 -1.75327,1.44617 -2.41073,1.20777 -2.41073,1.20776 -2.11666,0.5902 -2.11667,0.59019 -53.313541,0.0354 -53.313535,0.0354 z m 34.0907,-19.90433 1.32484,-0.61695 0.84604,-0.96358 0.84603,-0.96358 0.28849,-0.99658 0.28849,-0.99657 -0.0781,-12.12328 -0.0781,-12.123276 -5.82083,-2.3611 -5.82083,-2.36109 -0.47141,-0.15435 -0.4714,-0.15434 0.0745,15.03559 0.0745,15.035596 0.45529,0.83182 0.4553,0.83182 0.86175,0.86174 0.86175,0.86175 1.0642,0.48344 1.06421,0.48343 1.45521,0.003 1.4552,0.003 z m 46.108866,-0.34774 1.23562,-0.76393 0.80075,-1.29487 0.80074,-1.29487 0.0745,-15.036156 0.0745,-15.03615 -0.0745,0.001 -0.0745,10e-4 -6.2177,2.47653 -6.217711,2.47653 -0.0687,12.424906 -0.0687,12.42491 0.6082,1.15012 0.6082,1.15013 0.949451,0.76845 0.94945,0.76845 1.0246,0.38146 1.0246,0.38146 1.66779,-0.10758 1.6678,-0.10758 z" id="path1" />
  </g>
</svg>
